<svg width="22" height="20" viewBox="0 0 22 20" fill="none" xmlns="http://www.w3.org/2000/svg">
<path d="M10.989 0C4.917 0 0 4.48 0 10C0 15.52 4.917 20 10.989 20C17.072 20 22 15.52 22 10C22 4.48 17.072 0 10.989 0ZM7.15 6C8.063 6 8.8 6.67 8.8 7.5C8.8 8.33 8.063 9 7.15 9C6.237 9 5.5 8.33 5.5 7.5C5.5 6.67 6.237 6 7.15 6ZM11 16C8.492 16 6.358 14.34 5.5 12H16.5C15.642 14.34 13.508 16 11 16ZM14.85 9C13.937 9 13.2 8.33 13.2 7.5C13.2 6.67 13.937 6 14.85 6C15.763 6 16.5 6.67 16.5 7.5C16.5 8.33 15.763 9 14.85 9Z" fill="black"/>
</svg>
