<svg width="14" height="16" viewBox="0 0 14 16" fill="none" xmlns="http://www.w3.org/2000/svg">
<path d="M10.0057 10.0629H9.37336L9.14923 9.81589C9.93368 8.77301 10.4059 7.4191 10.4059 5.94625C10.4059 2.66209 8.07662 0 5.20297 0C2.32933 0 0 2.66209 0 5.94625C0 9.23042 2.32933 11.8925 5.20297 11.8925C6.49171 11.8925 7.67639 11.3528 8.58891 10.4563L8.80503 10.7124V11.4351L12.8073 16L14 14.6369L10.0057 10.0629ZM5.20297 10.0629C3.20983 10.0629 1.60091 8.22413 1.60091 5.94625C1.60091 3.66838 3.20983 1.82962 5.20297 1.82962C7.19611 1.82962 8.80503 3.66838 8.80503 5.94625C8.80503 8.22413 7.19611 10.0629 5.20297 10.0629Z" fill="black"/>
</svg>
