<svg width="24" height="23" viewBox="0 0 24 23" fill="none" xmlns="http://www.w3.org/2000/svg">
<g clip-path="url(#clip0_1_54)">
<path d="M19.14 12.4008C19.18 12.1133 19.2 11.8163 19.2 11.5C19.2 11.1933 19.18 10.8867 19.13 10.5992L21.16 9.085C21.34 8.95083 21.39 8.69208 21.28 8.50042L19.36 5.31875C19.24 5.10792 18.99 5.04083 18.77 5.10792L16.38 6.02792C15.88 5.66375 15.35 5.35708 14.76 5.12708L14.4 2.69292C14.36 2.46292 14.16 2.3 13.92 2.3H10.08C9.84 2.3 9.65 2.46292 9.61 2.69292L9.25 5.12708C8.66 5.35708 8.12 5.67333 7.63 6.02792L5.24 5.10792C5.02 5.03125 4.77 5.10792 4.65 5.31875L2.74 8.50042C2.62 8.70167 2.66 8.95083 2.86 9.085L4.89 10.5992C4.84 10.8867 4.8 11.2029 4.8 11.5C4.8 11.7971 4.82 12.1133 4.87 12.4008L2.84 13.915C2.66 14.0492 2.61 14.3079 2.72 14.4996L4.64 17.6813C4.76 17.8921 5.01 17.9592 5.23 17.8921L7.62 16.9721C8.12 17.3362 8.65 17.6429 9.24 17.8729L9.6 20.3071C9.65 20.5371 9.84 20.7 10.08 20.7H13.92C14.16 20.7 14.36 20.5371 14.39 20.3071L14.75 17.8729C15.34 17.6429 15.88 17.3362 16.37 16.9721L18.76 17.8921C18.98 17.9688 19.23 17.8921 19.35 17.6813L21.27 14.4996C21.39 14.2887 21.34 14.0492 21.15 13.915L19.14 12.4008ZM12 14.95C10.02 14.95 8.4 13.3975 8.4 11.5C8.4 9.6025 10.02 8.05 12 8.05C13.98 8.05 15.6 9.6025 15.6 11.5C15.6 13.3975 13.98 14.95 12 14.95Z" fill="#CDCDCD"/>
</g>
<defs>
<clipPath id="clip0_1_54">
<rect width="24" height="23" fill="white"/>
</clipPath>
</defs>
</svg>
