<svg width="71" height="67" viewBox="0 0 71 67" fill="none" xmlns="http://www.w3.org/2000/svg">
<path d="M35.5 0C15.904 0 0 15.008 0 33.5C0 51.992 15.904 67 35.5 67C55.096 67 71 51.992 71 33.5C71 15.008 55.096 0 35.5 0ZM35.5 13.4C42.3515 13.4 47.925 18.6595 47.925 25.125C47.925 31.5905 42.3515 36.85 35.5 36.85C28.6485 36.85 23.075 31.5905 23.075 25.125C23.075 18.6595 28.6485 13.4 35.5 13.4ZM35.5 60.3C28.2935 60.3 19.7735 57.553 13.703 50.652C19.7025 46.23 27.264 43.55 35.5 43.55C43.736 43.55 51.2975 46.23 57.297 50.652C51.2265 57.553 42.7065 60.3 35.5 60.3Z" fill="black"/>
</svg>
